<svg xmlns="http://www.w3.org/2000/svg" viewBox="0 0 64 64">
  <g fill="#000">
    <circle cx="32" cy="7" r=".75" opacity=".28"/>
    <circle cx="24" cy="9" r=".8" opacity=".32"/><circle cx="32" cy="10" r=".95" opacity=".42"/><circle cx="40" cy="9" r=".8" opacity=".32"/>
    <circle cx="17" cy="14" r=".7" opacity=".25"/><circle cx="24" cy="14" r=".9" opacity=".42"/><circle cx="32" cy="15" r="1.15" opacity=".62"/><circle cx="40" cy="14" r=".9" opacity=".42"/><circle cx="47" cy="14" r=".7" opacity=".25"/>
    <circle cx="11" cy="21" r=".65" opacity=".2"/><circle cx="18" cy="20" r=".9" opacity=".34"/><circle cx="25" cy="21" r="1.2" opacity=".62"/><circle cx="32" cy="22" r="1.55" opacity="1"/><circle cx="39" cy="21" r="1.2" opacity=".62"/><circle cx="46" cy="20" r=".9" opacity=".34"/><circle cx="53" cy="21" r=".65" opacity=".2"/>
    <circle cx="7" cy="30" r=".6" opacity=".16"/><circle cx="13" cy="29" r=".8" opacity=".28"/><circle cx="20" cy="29" r="1.15" opacity=".55"/><circle cx="27" cy="30" r="1.5" opacity=".9"/><circle cx="35" cy="30" r="1.5" opacity=".9"/><circle cx="43" cy="29" r="1.15" opacity=".55"/><circle cx="51" cy="29" r=".8" opacity=".28"/><circle cx="57" cy="30" r=".6" opacity=".16"/>
    <circle cx="7" cy="37" r=".6" opacity=".16"/><circle cx="14" cy="38" r=".8" opacity=".28"/><circle cx="22" cy="37" r="1.15" opacity=".55"/><circle cx="30" cy="38" r="1.5" opacity=".9"/><circle cx="38" cy="38" r="1.5" opacity=".9"/><circle cx="46" cy="37" r="1.15" opacity=".55"/><circle cx="53" cy="38" r=".8" opacity=".28"/><circle cx="57" cy="37" r=".6" opacity=".16"/>
    <circle cx="11" cy="45" r=".65" opacity=".2"/><circle cx="18" cy="45" r=".9" opacity=".34"/><circle cx="25" cy="44" r="1.2" opacity=".62"/><circle cx="32" cy="45" r="1.55" opacity="1"/><circle cx="39" cy="44" r="1.2" opacity=".62"/><circle cx="46" cy="45" r=".9" opacity=".34"/><circle cx="53" cy="45" r=".65" opacity=".2"/>
    <circle cx="17" cy="51" r=".7" opacity=".25"/><circle cx="24" cy="51" r=".9" opacity=".42"/><circle cx="32" cy="50" r="1.15" opacity=".62"/><circle cx="40" cy="51" r=".9" opacity=".42"/><circle cx="47" cy="51" r=".7" opacity=".25"/>
    <circle cx="24" cy="56" r=".8" opacity=".32"/><circle cx="32" cy="54" r=".95" opacity=".42"/><circle cx="40" cy="56" r=".8" opacity=".32"/>
    <circle cx="32" cy="58" r=".75" opacity=".28"/>
  </g>
</svg>
